{"title":"No Country for Old Men [2007] BRRip XviD - CODY","uid":7572003,"size":954540398,"categoryP":"video","categoryS":"movies","magnet":"?xt=urn:btih:472a452d5edf86f419f8d8c14843cb190d2c272c&amp;dn=No+Country+for+Old+Men+%5B2007%5D+BRRip+XviD+-+CODY&amp;tr=udp%3A%2F%2Ftracker.openbittorrent.com%3A80&amp;tr=udp%3A%2F%2Fopen.demonii.com%3A1337&amp;tr=udp%3A%2F%2Ftracker.coppersurfer.tk%3A6969&amp;tr=udp%3A%2F%2Fexodus.desync.com%3A6969","seeders":1,"leechers":0,"uploader":"CODYBOSS1969","files":5,"time":1346014752,"description":"General\nComplete name                            : No Country for Old Men [2007] BRRip XviD - CODY.avi\nFormat                                   : AVI\nFormat/Info                              : Audio Video Interleave\nFile size                                : 910 MiB\nDuration                                 : 2h 2mn\nOverall bit rate                         : 1 042 Kbps\nWriting application                      : VirtualDubMod 1.5.10.3 | www.virtualdub-fr.org || (build 2550/release)\nWriting library                          : VirtualDubMod build 2550/release\n\nVideo\nID                                       : 0\nFormat                                   : MPEG-4 Visual\nFormat profile                           : Advanced Simple@L5\nFormat settings, BVOP                    : 4\nFormat settings, QPel                    : No\nFormat settings, GMC                     : No warppoints\nFormat settings, Matrix                  : Default (H.263)\nCodec ID                                 : XVID\nCodec ID/Hint                            : XviD\nDuration                                 : 2h 2mn\nBit rate                                 : 904 Kbps\nWidth                                    : 720 pixels\nHeight                                   : 304 pixels\nDisplay aspect ratio                     : 2.35:1\nFrame rate                               : 23.976 fps\nColor space                              : YUV\nChroma subsampling                       : 4:2:0\nBit depth                                : 8 bits\nScan type                                : Progressive\nCompression mode                         : Lossy\nBits/(Pixel*Frame)                       : 0.172\nStream size                              : 790 MiB (87%)\nWriting library                          : XviD 65\n\nAudio\nID                                       : 1\nFormat                                   : MPEG Audio\nFormat version                           : Version 1\nFormat profile                           : Layer 3\nCodec ID                                 : 55\nCodec ID/Hint                            : MP3\nDuration                                 : 2h 2mn\nBit rate mode                            : Constant\nBit rate                                 : 128 Kbps\nChannel(s)                               : 2 channels\nSampling rate                            : 48.0 KHz\nCompression mode                         : Lossy\nStream size                              : 112 MiB (12%)\nAlignment                                : Aligned on interleaves\nInterleave, duration                     : 42 ms (1.00 video frame)\nInterleave, preload duration             : 504 ms\nWriting library                          : LAME3.99r\nEncoding settings                        : -m s -V 4 -q 2 -lowpass 17 -b 128\n\n\nIMDB link:                                &lt;a href=&quot; http://www.imdb.com/title/tt0477348/&quot; rel=&quot;nofollow&quot; target=&quot;_NEW&quot;&gt; http://www.imdb.com/title/tt0477348/&lt;/a&gt;\n\n\nSubtitles included                       : Romanian\n\n\nPlease seed at least 1,5:1. This way this torrent has a chance to survive!\n\n\nThanks. Enjoy! \t\t\t\t             \n","torrent":{"xt":"urn:btih:472a452d5edf86f419f8d8c14843cb190d2c272c","amp;dn":"No+Country+for+Old+Men+%5B2007%5D+BRRip+XviD+-+CODY","amp;tr":["udp%3A%2F%2Ftracker.openbittorrent.com%3A80","udp%3A%2F%2Fopen.demonii.com%3A1337","udp%3A%2F%2Ftracker.coppersurfer.tk%3A6969","udp%3A%2F%2Fexodus.desync.com%3A6969"],"infoHash":"472a452d5edf86f419f8d8c14843cb190d2c272c","infoHashBuffer":{"type":"Buffer","data":[71,42,69,45,94,223,134,244,25,248,216,193,72,67,203,25,13,44,39,44]},"announce":[],"urlList":[]}}